# xmcd CD database file
#
# Track frame offsets:
#	150
#	56210
#	109066
#	148604
#	191254
#	220303
#
# Disc length: 3741 seconds
#
# Revision: 0
# Processed by: cddbd v1.5.2PL0 Copyright (c) Steve Scherf et al.
# Submitted via: CDex 1.70beta2
#
DISCID=580e9b06
DTITLE=Dennis Gozalez - Hymn For Tomasz Stanko 
DYEAR=2005
DGENRE=Jazz
TTITLE0=Hymn For Tomasz Stanko 
TTITLE1=Hu-Nu
TTITLE2=Calligraphy
TTITLE3=Kuntu
TTITLE4=Namesake
TTITLE5=Nilam
EXTD=YEAR: 2005
EXTT0=
EXTT1=
EXTT2=
EXTT3=
EXTT4=
EXTT5=
PLAYORDER=
